<?xml version="1.0" encoding="utf-8"?>
<!-- Generator: Adobe Illustrator 18.1.1, SVG Export Plug-In . SVG Version: 6.00 Build 0)  -->
<!DOCTYPE svg PUBLIC "-//W3C//DTD SVG 1.1//EN" "http://www.w3.org/Graphics/SVG/1.1/DTD/svg11.dtd">
<svg version="1.1" id="Layer_1" xmlns="http://www.w3.org/2000/svg" xmlns:xlink="http://www.w3.org/1999/xlink" x="0px" y="0px"
	 viewBox="0 0 179.8 39.2" enable-background="new 0 0 179.8 39.2" xml:space="preserve">
<g>
	<g>
		<path d="M144.2,22.9L144.2,22.9l2,5.6h-4L144.2,22.9z M136.7,34.5h3.4l1.2-3.4h5.7l1.2,3.4h3.5L146,19.2h-3.5L136.7,34.5z
			 M131.6,34.5h3.4V19.2h-3.4V34.5z M119.1,22h2.4c3.3,0,4.4,2,4.4,5.1c0,3.4-1.9,4.6-3.8,4.6h-3V22z M115.7,34.5h6.6
			c4.7,0,6.9-3.3,6.9-7.7c0-5.1-3-7.6-6.9-7.6h-6.6V34.5z M102.2,34.5h11.6v-2.8h-8.3v-3.8h7.4v-2.6h-7.4V22h8.1v-2.8h-11.4V34.5z
			 M83.7,34.5h3.2V23.7h0l3.8,10.7h2.6L97,23.6h0v10.8h3.2V19.2h-4.7L92,29.7h0l-3.6-10.5h-4.7V34.5z M65,34.5h10.8v-2.8h-7.5V19.2
			H65V34.5z M52.3,34.5h10.8v-2.8h-7.5V19.2h-3.4V34.5z M43,22.9L43,22.9l2,5.6h-4L43,22.9z M35.5,34.5H39l1.2-3.4h5.7l1.2,3.4h3.5
			l-5.7-15.3h-3.5L35.5,34.5z M17.3,34.5h3.2V23.7h0l3.8,10.7h2.6l3.8-10.8h0v10.8h3.2V19.2H29l-3.4,10.5h0L22,19.2h-4.7V34.5z
			 M2.9,29.4c0,3.8,3.1,5.4,6.5,5.4c4.2,0,6.4-2.1,6.4-4.9c0-3.5-3.4-4.2-4.5-4.5c-3.8-1-4.6-1.1-4.6-2.3c0-1.3,1.2-1.7,2.3-1.7
			c1.6,0,2.9,0.5,3,2.3h3.3c0-3.5-2.9-4.9-6.1-4.9c-2.8,0-5.7,1.5-5.7,4.6c0,2.9,2.3,3.8,4.6,4.4c2.3,0.6,4.5,0.9,4.5,2.5
			c0,1.6-1.8,1.9-3,1.9c-1.8,0-3.4-0.8-3.4-2.8H2.9z"/>
		<path d="M176.5,13.7l-2.9-6.9c0,0-0.4-1-1.4-1.4l-6.9-2.9c0,0-1-0.4-1.9,0l-6.9,2.9c0,0-1,0.4-1.4,1.4l-2.9,6.9c0,0-0.4,1,0,1.9
			l2.9,6.9c0,0,0.4,1,1.4,1.4l6.9,2.9c0,0,1,0.4,1.9,0l6.9-2.9c0,0,1-0.4,1.4-1.4l2.9-6.9C176.5,15.6,176.9,14.6,176.5,13.7z
			 M168.8,18.7h-3.7v-3.7h1.7c0-1.4-0.4-2.2-1.7-2.6v-1.6c2,0.3,3.7,1.9,3.7,4.1V18.7z M160,10.6h3.7v3.7H162c0,1.4,0.4,2.2,1.7,2.6
			v1.6c-2-0.3-3.7-1.9-3.7-4.1V10.6z"/>
	</g>
</g>
</svg>
